<?xml version="1.0" encoding="utf-8"?>
<!-- Generator: Adobe Illustrator 27.5.0, SVG Export Plug-In . SVG Version: 6.00 Build 0)  -->
<svg version="1.1" xmlns="http://www.w3.org/2000/svg" xmlns:xlink="http://www.w3.org/1999/xlink" x="0px" y="0px"
	 viewBox="0 0 500 500" style="enable-background:new 0 0 500 500;" xml:space="preserve">
<g id="BACKGROUND">
	<rect style="fill:#FFFFFF;" width="500" height="500"/>
</g>
<g id="OBJECTS">
	<path style="fill:#222220;" d="M332.072,312.63c-0.01-0.938-0.077-1.873-0.214-2.8C332.015,310.757,332.087,311.69,332.072,312.63z
		 M423.685,249.003c-0.09,2.606-0.662,4.833-1.714,6.681c-0.055,0.099-0.099,0.092-0.132-0.021c-0.62-2.172-1.406-4.272-2.359-6.3
		c-1.045-2.232-2.051-4.158-3.018-5.779c-1.108-1.855-2.412-3.604-3.913-5.249c-0.465-0.509-0.664-0.42-0.597,0.267
		c0.028,0.294,0.11,0.722,0.247,1.284c0.867,3.568,1.631,7.388,2.293,11.458c0.252,1.552,0.409,2.967,0.472,4.246
		c0.254,5.266,0.234,10.53-0.059,15.791c-0.571,10.206-2.287,20.211-5.148,30.014c-0.874,2.997-1.589,6.033-2.144,9.106
		c-0.067,0.37-0.196,0.639-0.388,0.808c-0.206,0.183-0.301,0.137-0.285-0.139c0.032-0.636,0.069-1.249,0.111-1.839
		c0.033-0.47,0.104-1.081,0.215-1.835c0.601-4.137,0.466-8.256-0.406-12.357c-0.241-1.133-1.116-3.973-2.626-8.52
		c-1.753-5.275-4.353-10.087-7.798-14.435c-0.099-0.127-0.151-0.11-0.156,0.052c-0.148,6.496-1.134,12.857-2.959,19.083
		c-1.686,5.747-3.54,10.858-5.561,15.333c-1.869,4.133-3.759,8.407-5.672,12.822c-0.081,0.187-0.199,0.348-0.354,0.482
		c-0.224,0.194-0.303,0.105-0.236-0.267c0.691-3.865,1.015-7.762,0.971-11.694c-0.004-0.25-0.055-0.257-0.153-0.021
		c-3.441,8.249-7.196,16.351-11.264,24.304c-0.412,0.807-1.489,2.853-3.233,6.137c-4.646,8.753-8.966,17.667-12.96,26.739
		c-0.248,0.56-0.527,1.103-0.84,1.63c-0.067,0.116-0.143,0.187-0.228,0.215c-0.185,0.062-0.263-0.069-0.232-0.396
		c0.175-1.906,0.285-3.815,0.329-5.727c0.162-7.118,0.47-14.23,0.923-21.335c0.067-1.073,0.087-2.331,0.059-3.774
		c-0.025-1.26-0.015-2.521,0.031-3.781c0.009-0.213,0.002-0.377-0.021-0.492c-0.074-0.409-0.247-0.471-0.52-0.184
		c-0.083,0.086-0.157,0.21-0.222,0.375c-0.393,1.006-1.111,2.389-2.154,4.149c-2.227,3.765-3.744,7.795-4.551,12.09
		c-0.025,0.137-0.136,0.241-0.274,0.257c-0.662,0.074-1.224,0.039-1.686-0.104c-0.103-0.031-0.189-0.111-0.232-0.219
		c-0.296-0.701-0.483-1.276-0.562-1.724c-0.652-3.673-1.309-7.302-1.971-10.889c-0.088-0.474-0.203-0.481-0.347-0.021
		c-1.281,4.098-2.841,8.086-4.68,11.965c-4.549,9.605-7.732,16.574-9.547,20.908c-1.956,4.674-3.755,9.408-5.395,14.202
		c-1.531,4.47-2.76,9.022-3.688,13.654c-0.035,0.169-0.082,0.31-0.142,0.423c-0.25,0.465-0.389,0.338-0.417-0.382
		c-0.011-0.243-0.02-0.413-0.027-0.51c-0.296-3.407-0.871-6.768-1.725-10.085c-0.638-2.488-1.85-4.651-3.635-6.487
		c-0.08-0.083-0.212-0.085-0.295-0.006c-0.016,0.015-0.028,0.032-0.038,0.051c-4.866,9.094-9.893,18.106-15.08,27.038
		c-0.453,0.782-1.133,2.262-2.04,4.44c-0.067,0.162-0.155,0.269-0.264,0.323c-0.199,0.095-0.285-0.039-0.257-0.402
		c0.019-0.257,0.028-0.404,0.028-0.441c0.037-2.033,0.009-4.012-0.083-5.939c-0.021-0.46-0.13-0.482-0.33-0.066
		c-2.946,6.177-5.809,12.39-8.589,18.639c-1.175,2.639-2.206,5.332-3.094,8.079c-0.053,0.16-0.111,0.296-0.173,0.409
		c-0.358,0.636-0.522,0.542-0.493-0.281c0.004-0.136,0.022-0.295,0.052-0.475c0.412-2.361,0.571-4.74,0.479-7.136
		c-0.035-0.893,0.154-2.221,0.565-3.986c0.03-0.132,0.037-0.252,0.021-0.361c-0.06-0.435-0.206-0.46-0.437-0.076
		c-0.074,0.125-0.139,0.222-0.194,0.291c-5.298,6.744-10.56,13.518-15.784,20.322c-6.497,8.465-12.098,17.488-16.804,27.069
		c-0.132,0.268-0.253,0.264-0.364-0.014c-0.698-1.704-1.477-3.38-2.334-5.027c-0.1-0.19-0.968-1.815-2.606-4.878
		c-1.482-2.775-3.085-5.481-4.808-8.117c-2.002-3.064-4.084-6.072-6.244-9.023c-2.375-3.242-3.568-4.873-3.58-4.891
		c-2.502-3.457-5.026-6.898-7.573-10.32c-1.214-1.63-2.296-3.322-3.247-5.075c-0.197-0.363-0.321-0.34-0.375,0.069
		c-0.246,1.901-0.474,3.802-0.687,5.703c-0.113,0.995-0.177,1.954-0.191,2.879c-0.023,1.374-0.013,2.338,0.031,2.893
		c0.04,0.479-0.1,0.69-0.417,0.635c-0.098-0.017-0.178-0.104-0.201-0.218c-0.347-1.816-0.907-3.563-1.682-5.242
		c-2.34-5.086-4.579-10.218-6.716-15.396c-0.798-1.929-1.696-3.809-2.695-5.641c-0.056-0.104-0.088-0.097-0.097,0.021
		c-0.104,1.362-0.128,2.575-0.073,3.639c0.041,0.814-0.036,1.561-0.232,2.241c-0.032,0.111-0.063,0.11-0.09-0.004
		c-0.405-1.61-1.215-3.519-2.432-5.727c-3.8-6.91-7.502-13.873-11.108-20.887c-0.888-1.73-1.906-3.379-3.053-4.947
		c-0.05-0.065-0.143-0.079-0.207-0.031c-0.007,0.005-0.013,0.011-0.019,0.017c-0.849,0.909-1.56,2.038-2.133,3.386
		c-1.478,3.469-2.518,6.916-3.119,10.341c-0.019,0.111-0.091,0.751-0.219,1.918c-0.067,0.641-0.192,1.273-0.374,1.898
		c-0.155,0.536-0.326,0.59-0.514,0.159c-0.044-0.104-0.07-0.228-0.08-0.371c-0.069-1.085-0.188-1.939-0.357-2.564
		c-1.85-6.843-3.527-12.105-5.03-15.784c-1.942-4.755-4.602-10.479-7.979-17.172c-1.901-3.77-3.932-8.371-6.092-13.803
		c-0.002-0.007-0.421-1.116-1.256-3.327c-1.096-2.912-2.376-5.638-3.84-8.18c-0.49-0.851-0.778-0.788-0.864,0.191
		c-0.313,3.642-0.892,7.223-1.738,10.74c-0.007,0.023-0.041,0.202-0.101,0.538c-0.162,0.872-0.69,1.123-1.585,0.753
		c-0.102-0.043-0.19-0.121-0.253-0.222c-0.412-0.668-0.784-1.544-1.117-2.626c-1.45-4.692-3.411-9.051-5.883-13.075
		c-0.511-0.832-0.692-0.767-0.542,0.198c0.181,1.17,0.275,2.333,0.285,3.49c0.025,3.198,0.229,7.13,0.61,11.795
		c0.202,2.452,0.335,5.278,0.399,8.478c0,0.021,0.065,1.651,0.194,4.891c0.079,1.991,0.036,3.981-0.128,5.97
		c-0.007,0.09-0.029,0.155-0.066,0.194c-0.083,0.095-0.169,0.046-0.256-0.146c-1.73-3.811-3.432-7.637-5.106-11.476
		c-1.501-3.439-4.059-8.223-7.674-14.351c-4.228-7.167-7.932-14.595-11.115-22.285c-1.512-3.656-3.222-7.136-5.127-10.438
		c-0.421-0.731-0.545-0.683-0.371,0.142c0.192,0.916,0.243,1.837,0.152,2.765c-0.28,2.9-0.135,5.777,0.434,8.631
		c0.037,0.185,0.022,0.326-0.045,0.423c-0.076,0.113-0.187,0.165-0.33,0.156c-0.095-0.006-0.188-0.079-0.247-0.191
		c-2.225-4.327-3.585-7.079-4.083-8.256c-3.485-8.279-6.151-16.251-7.999-23.915c-1.223-5.072-1.894-10.615-2.012-16.631
		c-0.002-0.116-0.038-0.127-0.107-0.035c-1.651,2.273-2.824,4.099-3.518,5.478c-1.681,3.342-3.242,7.36-4.683,12.055
		c-0.953,3.101-1.56,5.703-1.821,7.805c-0.111,0.883-0.255,3.225-0.434,7.025c-0.058,1.212,0.163,3.542,0.663,6.99
		c0.025,0.171,0.025,0.31,0,0.416c-0.063,0.271-0.204,0.32-0.423,0.149c-0.081-0.063-0.142-0.165-0.173-0.288
		c-0.768-3.013-1.655-5.991-2.661-8.933c-2.267-6.619-3.867-13.387-4.801-20.304c-0.342-2.523-0.607-4.82-0.795-6.89
		c-0.396-4.359-0.498-9.107-0.309-14.244c0.086-2.317,0.228-4.368,0.427-6.151c0.148-1.341,0.522-3.356,1.12-6.043
		c0.692-3.113,1.347-6.235,1.967-9.366c0.032-0.162,0.036-0.301,0.01-0.416c-0.079-0.377-0.262-0.39-0.552-0.038
		c-0.742,0.906-1.473,1.822-2.192,2.747c-1.674,2.153-3.006,4.503-3.996,7.049c-1.024,2.641-2.145,5.229-3.362,7.764
		c-0.062,0.132-0.122,0.131-0.18-0.003c-0.384-0.876-0.704-1.747-0.961-2.612c-0.241-0.809-0.405-1.718-0.493-2.727
		c-0.287-3.252-0.209-6.693,0.232-10.324c0.428-3.508,0.951-6.746,1.568-9.713c0.3-1.445,0.789-3.706,1.464-6.782
		c2.368-10.796,6.279-20.699,11.732-29.709c1.843-3.043,4.189-6.295,7.039-9.755c1.246-1.515,2.798-3.227,4.655-5.138
		c2.042-2.105,4.093-4.2,6.154-6.286c1.631-1.651,3.237-3.5,4.819-5.547c0.14-0.182,0.19-0.418,0.135-0.642
		c-0.759-3.12-1.579-6.201-2.463-9.245c-1.337-4.595-2.588-9.214-3.754-13.855c-0.509-2.031-0.798-3.806-0.867-5.325
		c-0.097-2.165-0.01-4.329,0.26-6.494c0.275-2.204,0.843-4.331,1.704-6.38c0.578-1.376,1.171-2.745,1.779-4.107
		c0.264-0.59,0.577-1.123,0.94-1.599c0.075-0.101,0.082-0.237,0.017-0.343c-2.139-3.471-3.725-7.084-4.756-10.837
		c-1.786-6.505-3.053-13.639-3.802-21.4c-0.71-7.364-0.652-14.273,0.173-20.728c0.534-4.163,1.586-8.439,3.157-12.828
		c0.967-2.703,1.831-4.848,2.592-6.435c1.609-3.367,3.716-6.424,6.32-9.169c1.892-1.996,4.026-3.359,6.404-4.09
		c1.984-0.611,4.116-0.657,6.394-0.139c2.699,0.615,5.178,1.719,7.438,3.313c3.185,2.246,6.271,4.622,9.259,7.129
		c9.089,7.623,18.194,15.227,27.315,22.812c5.976,4.97,11.515,10.389,16.617,16.256c0.287,0.331,0.511,0.652,0.673,0.964
		c0.058,0.112,0.188,0.166,0.309,0.128c3.328-1.024,6.662-1.723,10.001-2.095c2.391-0.266,4.275-0.392,5.651-0.378
		c1.996,0.018,3.88,0.304,5.651,0.857c2.03,0.634,3.99,1.06,5.88,1.28c1.443,0.167,3.436,0.259,5.98,0.278
		c2.216,0.016,4.427-0.105,6.633-0.364c4.484-0.525,8.964-1.081,13.439-1.669c2.655-0.347,5.317-0.519,7.986-0.517
		c1.869,0.002,4.174,0.161,6.918,0.475c3.226,0.37,6.444,0.801,9.654,1.294c3.968,0.606,8.186,0.889,12.651,0.85
		c1.73-0.016,3.291-0.19,4.683-0.52c0.768-0.183,2.391-0.645,4.867-1.388c1.24-0.372,2.412-0.597,3.518-0.673
		c2.442-0.174,4.475-0.151,6.099,0.066c3.656,0.49,7.294,1.317,10.914,2.48c0.179,0.056,0.372,0.015,0.51-0.107
		c0.613-0.546,1.199-1.134,1.759-1.766c0.971-1.094,1.461-1.645,1.471-1.655c2.946-3.12,6.626-6.637,11.039-10.553
		c12.028-10.664,24.195-21.165,36.501-31.502c2.808-2.359,5.976-4.047,9.505-5.065c1.917-0.553,3.949-0.541,6.095,0.035
		c2.103,0.564,3.871,1.429,5.308,2.595c3.08,2.495,5.603,5.465,7.569,8.909c1.926,3.372,3.428,6.909,4.506,10.612
		c0.462,1.596,1.018,3.84,1.665,6.733c0.906,4.061,1.466,7.801,1.679,11.219c0.185,2.953,0.079,6.202-0.319,9.745
		c-0.185,1.654-0.475,3.948-0.871,6.883c-1.242,9.174-3.614,18.064-7.115,26.67c-0.282,0.694-0.792,1.46-1.53,2.3
		c-0.071,0.079-0.086,0.191-0.038,0.281c1.989,3.797,3.43,7.776,4.322,11.937c0.513,2.382,0.711,4.675,0.593,6.879
		c-0.132,2.484-0.525,5.036-1.18,7.656c-1.297,5.208-2.607,10.412-3.927,15.611c-0.514,2.021-0.953,3.395-1.318,4.121
		c-0.352,0.696-0.331,1.299,0.063,1.807c1.487,1.924,3.059,3.774,4.714,5.551c3.09,3.316,4.666,5.009,4.728,5.079
		c3.744,4.29,6.964,8.397,9.661,12.322c1.998,2.909,3.991,6.271,5.977,10.085c1.082,2.074,2.049,4.174,2.9,6.3
		c3.386,8.453,5.821,17.188,7.306,26.205c0.389,2.37,0.819,5.419,1.291,9.144C423.648,244.758,423.757,246.933,423.685,249.003z
		 M376.833,78.937l-2.667,2.043c-0.925,0.695-1.884,1.375-3.159,2.198c1.285,0.844,2.872,0.965,4.318,0.714
		c1.461-0.256,2.811-0.913,3.952-1.789c1.133-0.875,2.054-1.951,2.734-3.143c0.677-1.2,1.158-2.483,1.301-4
		c-1.449,0.484-2.577,1.191-3.624,1.88C378.645,77.535,377.726,78.248,376.833,78.937z M364.418,110.267
		c2.204-0.542,4.382-1.365,6.417-2.605c2.02-1.23,3.897-2.937,5.147-5.055c1.234-2.093,1.891-4.651,1.3-6.957
		c-1.088,2.079-2.357,3.652-3.796,5.037c-1.438,1.374-3.016,2.504-4.742,3.566c-1.72,1.056-3.577,2.03-5.464,3.091
		c-1.88,1.054-3.624,2.079-5.831,2.86C359.664,111.107,362.221,110.801,364.418,110.267z M358.483,179.1l-1.852-6.843
		c-0.645-2.302-1.36-4.635-2.334-6.904c-0.979-2.257-2.194-4.485-3.917-6.309c0.543,2.436,1.043,4.737,1.525,7.071
		c0.489,2.326,0.993,4.661,1.643,7.001c0.651,2.336,1.453,4.686,2.593,6.913c1.142,2.213,2.616,4.334,4.593,5.884
		C359.845,183.58,359.116,181.366,358.483,179.1z M364.246,141.349c1.607,2.222,3.038,4.526,4.291,6.91
		c0.49,0.932,1.676,3.447,3.556,7.545c0.83,1.816,1.514,3.727,2.05,5.734c0.067,0.254,0.163,0.266,0.288,0.035
		c0.606-1.108,1.298-2.249,2.078-3.424c0.271-0.407,0.612-0.711,1.023-0.912c0.347-0.171,0.776-0.198,1.287-0.08
		c0.477,0.109,0.945,0.234,1.405,0.375c0.009,0.003,0.017,0.005,0.026,0.006c0.099,0.016,0.191-0.049,0.207-0.145
		c0.095-0.546,0.183-1.052,0.264-1.519c0.074-0.428,0.191-0.93,0.351-1.506c0.585-2.091,0.917-4.329,0.996-6.716
		c0.125-3.786-0.106-7.37-0.694-10.754c-0.599-3.448-1.661-7.779-3.185-12.992c-0.176-0.592-0.39-1.16-0.642-1.703
		c-0.102-0.222-0.156-0.212-0.163,0.031c-0.018,0.671,0.028,1.333,0.139,1.988c0.204,1.223,0.31,1.874,0.319,1.953
		c0.1,0.881,0.206,1.76,0.319,2.636c0.139,1.066,0.22,1.95,0.243,2.65c0.09,2.586-0.076,4.947-0.5,7.084
		c-0.628,3.178-1.261,6.435-1.897,9.751c0.204-1.967,0.151-3.974-0.339-6.01c-0.691-2.859-2.067-5.409-3.479-7.719
		c-1.43-2.329-2.903-4.431-4.141-6.661c-1.251-2.231-2.269-4.522-2.768-7.305c-1.196,2.61-0.967,5.775-0.143,8.509
		c0.819,2.781,2.244,5.275,3.64,7.547c1.409,2.29,2.819,4.42,3.93,6.671c0.812,1.581,1.405,3.365,2.07,5.209
		c-3.22-2.963-6.669-5.433-10.358-7.391C364.073,140.963,364.015,141.03,364.246,141.349z M355.498,74.926
		c-1.836,1.758-4.113,3.05-6.831,3.878c-0.296,0.09-0.498,0.365-0.496,0.677c0.007,1.26-0.224,2.569-0.694,3.927
		c-1.793,5.187-4.869,9.44-9.231,12.759c-1.075,0.821-2.379,1.574-3.91,2.258c-0.183,0.081-0.273,0.206-0.27,0.375
		c0,0.008,0.001,0.017,0.003,0.025c0.003,0.017,0.02,0.026,0.029,0.04c0.011,0.018,0.017,0.036,0.035,0.048
		c0.018,0.013,0.038,0.014,0.061,0.02c0.017,0.005,0.03,0.017,0.049,0.016c0.009,0,0.018-0.001,0.028-0.003l5.294-1.02
		c0.569-0.111,0.717,0.08,0.444,0.572c-0.775,1.404-1.495,2.893-2.161,4.468c-0.005,0.009-0.376,1.012-1.114,3.008
		c-0.93,2.521-2.25,4.819-3.961,6.893c-0.858,1.038-1.47,1.724-1.836,2.057c-0.613,0.562-1.374,1.089-2.282,1.582
		c-0.438,0.238-0.507,0.415-0.208,0.531c0.086,0.035,0.213,0.057,0.382,0.066c3.09,0.176,6.052,0.875,8.888,2.099
		c2.162,0.932,3.53,2.451,4.104,4.558c0.229,0.839,0.224,1.77-0.014,2.792c-0.943,4.045-3.15,7.331-6.619,9.859
		c-0.213,0.154-0.27,0.449-0.128,0.673c1.51,2.421,3.519,4.2,6.025,5.335c2.26,1.022,4.007,1.599,5.242,1.731
		c1.855,0.197,4.919,0.199,9.193,0.007c0.115-0.005,0.132-0.047,0.048-0.128c-1.848-1.799-3.678-3.616-5.492-5.45
		c-0.872-0.881-2.1-1.652-3.684-2.314c-0.185-0.076-0.269-0.156-0.253-0.239c0.02-0.097,0.189-0.165,0.506-0.205
		c0.248-0.03,0.495-0.039,0.742-0.028c3.097,0.162,5.729-0.541,7.896-2.109c0.532-0.384,0.758-0.878,0.677-1.481
		c-0.013-0.107-0.073-0.208-0.167-0.281c-1.341-1.038-2.884-1.84-4.628-2.404c-0.048-0.016-0.079-0.053-0.107-0.091
		c-0.018-0.025-0.028-0.051-0.035-0.08c-0.007-0.028-0.011-0.057-0.007-0.087c0.007-0.047,0.017-0.094,0.052-0.131
		c1.742-1.783,2.939-3.912,3.594-6.386c0.224-0.844,0.348-1.359,0.371-1.544c0.063-0.5,0.029-1.037-0.101-1.613
		c-0.421-1.882-1.246-3.431-2.474-4.645c-1.096-1.085-2.532-1.967-4.308-2.647c-2.031-0.777-4.259-1.042-6.685-0.794
		c-0.534,0.053-0.599-0.096-0.194-0.448c0.751-0.657,1.756-1.221,3.015-1.693c5.233-1.966,10.175-4.499,14.823-7.601
		c1.989-1.33,3.765-2.9,5.329-4.711c1.061-1.233,1.887-2.608,2.477-4.125c0.527-1.362,0.689-2.736,0.486-4.121
		c-0.137-0.944-0.478-1.718-1.023-2.324c-0.594-0.659-1.342-1.135-2.245-1.429c-0.939-0.305-1.7-0.465-2.282-0.479
		c-2.609-0.062-4.192-0.127-4.75-0.194c-0.652-0.079-0.774-0.205-0.368-0.378c0.079-0.032,0.182-0.064,0.309-0.094
		c5.724-1.341,10.118-4.512,13.183-9.512c0.629-1.027,1.077-2.043,1.343-3.049c0.097-0.372-0.027-0.473-0.372-0.302
		c-1.6,0.796-3.228,1.49-4.884,2.085c-0.336,0.12-1.012,0.291-2.029,0.513c-0.775,0.169-1.431,0.419-1.967,0.749
		c-0.505,0.312-0.571,0.244-0.216-0.189c-0.04,0.102-0.086,0.201-0.125,0.304c1.53-1.323,2.876-2.798,4.165-4.317
		c1.286-1.522,2.488-3.109,3.628-4.736c1.15-1.611,2.156-3.362,2.982-5.231c0.722-1.683,1.256-3.511,1.294-5.353
		c0.052-0.123,0.093-0.25,0.146-0.372c0.151-0.348,0.095-0.404-0.147-0.195c-0.001-0.014,0-0.027,0-0.041
		c-0.012,0.024-0.024,0.046-0.036,0.07c-0.01,0.008-0.014,0.01-0.024,0.02c-1.649,1.54-3.192,3.248-4.631,5.124
		C365.127,64.976,360.51,70.128,355.498,74.926z M338.963,177.789c0,2.841-0.122,5.694-0.168,8.658
		c1.344-2.649,2.17-5.518,2.678-8.437c0.497-2.923,0.637-5.912,0.448-8.877c-0.19-2.965-0.706-5.911-1.569-8.748
		c-0.874-2.831-2.054-5.573-3.718-8.032c0.425,2.933,0.907,5.748,1.265,8.567c0.368,2.813,0.653,5.61,0.829,8.416
		C338.903,172.141,338.974,174.952,338.963,177.789z M318.608,87.318c3.171-2.769,6.177-5.629,9.207-8.451l9.064-8.443l9.148-8.351
		c3.058-2.792,6.149-5.558,9.163-8.5c-3.785,1.852-7.334,4.103-10.746,6.54c-3.406,2.446-6.652,5.114-9.734,7.958
		c-3.081,2.845-6.001,5.866-8.713,9.064C323.292,80.342,320.762,83.698,318.608,87.318z M292.69,120.21
		c2.945-1.187,5.843-2.018,8.811-2.705c2.96-0.693,5.971-1.264,9.006-1.987c3.029-0.724,6.103-1.591,9.026-2.941
		c0.781-0.361,1.551-0.763,2.301-1.202c-1.35,0.945-2.789,1.766-4.257,2.548c-3.261,1.698-6.748,3.372-9.947,5.551
		c-3.208,2.151-6.239,4.743-8.592,7.917c-2.334,3.146-4.029,6.894-4.245,10.747c1.524-3.514,3.659-6.511,6.174-9.126
		c2.509-2.615,5.397-4.831,8.447-6.881c3.042-2.08,6.287-3.859,9.48-6.071c1.58-1.108,3.115-2.362,4.43-3.833
		c1.02-1.142,1.88-2.445,2.456-3.839c0.494-0.49,0.96-1.004,1.381-1.557c-0.336,0.182-0.674,0.338-1.01,0.507
		c0.016-0.054,0.042-0.106,0.057-0.16c-0.055,0.077-0.117,0.144-0.173,0.219c-2.423,1.209-4.867,2.116-7.383,2.83
		c-2.9,0.83-5.873,1.463-8.885,2.178c-3.007,0.715-6.067,1.506-9.031,2.7C297.792,116.298,294.897,117.899,292.69,120.21z
		 M263.43,186.658c-0.043,5.195,0.329,10.396,1.315,15.482c-0.016,0.456,0.07,0.859,0.25,1.212c0.043,0.197,0.078,0.394,0.122,0.591
		c0.008-0.119,0.017-0.237,0.025-0.357c0.034,0.05,0.057,0.105,0.095,0.152c0.326,0.402,0.688,0.439,1.085,0.111
		c1.182-0.962,2.186-2.064,3.011-3.306c0.47-0.703,1.006-1.342,1.61-1.918c0.24-0.229,0.861-0.784,1.863-1.665
		c2.65-2.329,5.704-3.8,9.162-4.413c0.881-0.157,2.278-0.239,4.19-0.246c1.404-0.005,2.808-0.044,4.211-0.118
		c0.114-0.005,0.219-0.039,0.316-0.104c3.162-2.044,6.564-3.549,10.209-4.513c2.206-0.585,5.208-1.094,9.005-1.526
		c2.079-0.236,3.895-0.143,5.446,0.278c0.113,0.03,0.153-0.01,0.118-0.121c-0.514-1.612-1.276-2.842-2.29-3.691
		c-1.737-1.452-3.927-2.269-6.57-2.449c-2.026-0.139-4.483-0.141-7.372-0.007c-0.029,0.001-0.049-0.014-0.075-0.022
		c-0.024-0.008-0.052-0.008-0.071-0.023c-0.019-0.015-0.021-0.038-0.032-0.058c-0.011-0.02-0.03-0.036-0.031-0.059
		c-0.004-0.157,0.083-0.287,0.264-0.388c0.558-0.317,1.104-0.651,1.641-1.003c0.312-0.206,0.81-0.609,1.492-1.211
		c0.89-0.786,1.765-1.279,2.623-1.478c1.059-0.247,1.198-0.534,0.416-0.86c-0.256-0.109-0.456-0.2-0.597-0.274
		c-0.795-0.425-1.429-0.654-1.901-0.687c-1.758-0.12-3.835,0.154-6.234,0.822c-5.462,1.529-10.417,4.052-14.861,7.569
		c-1.89,1.494-3.313,2.835-4.271,4.024c-0.074,0.092-0.115,0.08-0.125-0.038c-0.056-0.712-0.007-1.26,0.146-1.644
		c1.177-2.983,3.039-5.436,5.585-7.358c0.108-0.082,0.163-0.195,0.132-0.274c-0.035-0.092-0.139-0.108-0.312-0.045
		c-1.737,0.645-3.419,1.4-5.047,2.265c-1.839,0.978-3.334,2.04-4.486,3.185c-1.677,1.667-3.076,3.653-4.197,5.956
		c-1.653,3.394-2.917,6.771-3.798,10.131c0.288-3.941,0.611-7.845,1.067-11.727c0.65-5.633,1.51-11.215,2.622-16.748
		c1.11-5.534,2.467-11.016,4.039-16.464c1.561-5.455,3.388-10.844,5.247-16.33c-3.357,4.728-6.028,9.918-8.223,15.299
		c-2.185,5.388-3.842,10.999-4.985,16.709C264.12,175.028,263.489,180.844,263.43,186.658z M290.743,210.003
		c-0.001,0.033,0.008,0.059,0.021,0.09c0.012,0.031,0.022,0.056,0.045,0.08c0.009,0.01,0.008,0.025,0.019,0.033
		c0.033,0.025,0.071,0.042,0.111,0.048c2.921,0.481,5.734,0.685,8.44,0.611c1.517-0.042,2.848-0.232,3.993-0.572
		c1.328-0.396,2.572-0.941,3.733-1.637c1.263-0.761,2.18-1.773,2.751-3.035c0.592-1.309,0.695-2.588,0.309-3.837
		c-0.497-1.607-1.712-2.605-3.646-2.994c-3.541-0.71-6.656,0.135-9.345,2.536c-1.534,1.369-2.885,3.077-4.056,5.124
		c-0.433,0.754-0.797,1.337-1.093,1.748c-0.421,0.583-0.835,1.136-1.242,1.658c-0.025,0.033-0.042,0.071-0.049,0.111
		C290.732,209.979,290.743,209.989,290.743,210.003z M277.482,202.014c-1.788,1.745-3.086,3.778-4.289,5.647
		c-1.209,1.884-2.311,3.646-3.699,5.149c-1.407,1.509-3.01,2.843-5.333,3.601c1.14,0.486,2.463,0.514,3.735,0.293
		c1.272-0.241,2.48-0.773,3.575-1.457c2.213-1.399,3.819-3.452,5.089-5.426c1.284-2.001,2.267-3.988,3.375-5.832
		c1.118-1.86,2.301-3.604,4.121-5.232C281.56,198.821,279.231,200.305,277.482,202.014z M236.783,251.866
		c-4.245,1.208-8.344,2.946-11.978,5.407c4.28-0.931,8.439-1.777,12.622-2.336c4.176-0.569,8.348-0.899,12.527-0.963
		c4.179-0.064,8.359,0.136,12.55,0.574c4.198,0.428,8.381,1.141,12.69,1.933c-3.708-2.351-7.86-3.96-12.141-5.034
		c-4.288-1.063-8.731-1.544-13.162-1.473C245.461,250.046,241.036,250.668,236.783,251.866z M236.188,216.41
		c-2.323-0.758-3.926-2.092-5.333-3.601c-1.388-1.503-2.489-3.264-3.699-5.149c-1.203-1.869-2.501-3.902-4.289-5.647
		c-1.749-1.709-4.078-3.193-6.575-3.258c1.82,1.628,3.003,3.372,4.121,5.232c1.107,1.844,2.091,3.831,3.375,5.832
		c1.27,1.974,2.876,4.027,5.089,5.426c1.095,0.684,2.302,1.216,3.575,1.457C233.725,216.924,235.049,216.897,236.188,216.41z
		 M209.445,177.752c-2.771-1.048-5.559-2.05-8.364-3.008c-0.874-0.298-1.634-0.532-2.279-0.701c-0.68-0.178-1.374-0.194-2.082-0.049
		c-0.647,0.134-1.334,0.308-2.06,0.52c-0.009,0.003-0.018,0.006-0.026,0.01c-0.014,0.007-0.018,0.023-0.028,0.034
		c-0.014,0.014-0.028,0.024-0.036,0.042c-0.008,0.018-0.006,0.035-0.006,0.055c-0.001,0.015-0.009,0.029-0.005,0.044
		c0.003,0.009,0.006,0.018,0.011,0.026c0.43,0.842,1.051,1.503,1.863,1.984c1.328,0.786,2.453,1.79,3.375,3.011
		c0.067,0.088,0.047,0.115-0.059,0.08c-0.529-0.18-1.162-0.269-1.898-0.267c-1.862,0.009-3.134,0.038-3.816,0.087
		c-3.332,0.234-6.014,1.657-8.045,4.27c-0.68,0.877-1.335,1.997-1.967,3.362c-0.055,0.118-0.078,0.222-0.066,0.312
		c0.028,0.229,0.168,0.256,0.42,0.08c0.102-0.072,0.212-0.112,0.315-0.114c2.179-0.044,4.657,0.066,7.435,0.329
		c2.389,0.227,4.648,0.648,6.778,1.263c1.376,0.398,2.698,0.944,3.965,1.637c1.258,0.687,2.47,1.455,3.636,2.303
		c0.754,0.55,1.611,1.067,2.57,1.551c0.26,0.129,0.565,0.13,0.826,0.003c0.701-0.345,1.46-0.563,2.279-0.656
		c1.866-0.21,3.735-0.304,5.606-0.281c1.593,0.018,3.02,0.238,4.281,0.659c2.038,0.682,3.845,1.651,5.422,2.907
		c1.931,1.54,4.026,3.55,6.286,6.029c0.476,0.521,0.956,0.658,1.439,0.411c0.006,0.085,0.012,0.169,0.018,0.255
		c0.023-0.102,0.041-0.205,0.063-0.307c0.134-0.08,0.268-0.182,0.402-0.321c0.077-0.079,0.126-0.182,0.142-0.295
		c0.089-0.658,0.078-1.369-0.011-2.12c0.816-4.691,1.13-9.469,1.091-14.243c-0.059-5.814-0.69-11.629-1.832-17.34
		c-1.143-5.711-2.801-11.321-4.985-16.709c-2.194-5.381-4.866-10.571-8.223-15.299c1.859,5.486,3.686,10.875,5.247,16.33
		c1.572,5.448,2.929,10.93,4.039,16.464c1.112,5.534,1.973,11.116,2.622,16.748c0.351,2.99,0.623,5.993,0.862,9.016
		c-0.309-1.15-0.586-2.124-0.833-2.91c-0.918-2.921-2.299-5.56-4.142-7.916c-1.21-1.545-2.731-2.924-4.565-4.139
		c-2.28-1.51-4.713-2.747-7.299-3.712c-0.111-0.042-0.124-0.022-0.038,0.059c1.915,1.815,3.425,3.925,4.53,6.328
		c0.35,0.763,0.611,1.556,0.784,2.38c0.092,0.433-0.008,0.483-0.302,0.153c-1.122-1.267-2.399-2.391-3.833-3.372
		c-1.043-0.715-2.495-1.584-4.357-2.609C212.938,179.217,211.221,178.425,209.445,177.752z M209.378,209.803
		c-0.842-1.066-1.661-2.095-2.459-3.087c-1.487-1.846-2.318-2.863-2.494-3.053c-2.981-3.24-6.734-4.763-11.26-4.569
		c-1.268,0.053-2.273,0.281-3.018,0.683c-0.999,0.539-1.722,1.343-2.169,2.411c-0.333,0.8-0.415,1.614-0.246,2.442
		c0.171,0.842,0.534,1.613,1.089,2.314c0.467,0.594,1.157,1.294,2.071,2.099c1.016,0.897,2.091,1.476,3.227,1.734
		c1.207,0.273,2.427,0.452,3.66,0.538c0.571,0.039,1.253,0.012,2.046-0.083c0.68-0.079,1.361-0.146,2.044-0.201
		c0.946-0.076,1.959-0.216,3.039-0.42c1.429-0.273,2.881-0.457,4.357-0.552C209.465,210.045,209.503,209.96,209.378,209.803z
		 M181.698,110.226c-2.516-0.714-4.96-1.621-7.382-2.83c-0.056-0.075-0.118-0.143-0.173-0.219c0.015,0.055,0.041,0.106,0.057,0.161
		c-0.337-0.17-0.675-0.325-1.011-0.508c0.42,0.553,0.888,1.067,1.381,1.557c0.576,1.394,1.436,2.697,2.456,3.839
		c1.315,1.471,2.85,2.724,4.43,3.833c3.193,2.212,6.439,3.991,9.481,6.071c3.049,2.05,5.938,4.266,8.447,6.881
		c2.515,2.615,4.649,5.611,6.173,9.126c-0.216-3.853-1.912-7.601-4.245-10.747c-2.353-3.174-5.384-5.766-8.592-7.917
		c-3.199-2.179-6.687-3.853-9.947-5.551c-1.468-0.781-2.907-1.602-4.256-2.547c0.749,0.439,1.52,0.841,2.301,1.202
		c2.924,1.35,5.998,2.217,9.026,2.941c3.035,0.723,6.045,1.294,9.006,1.987c2.968,0.687,5.866,1.518,8.811,2.705
		c-2.207-2.311-5.102-3.912-8.046-5.106c-2.963-1.194-6.023-1.984-9.031-2.7C187.571,111.69,184.599,111.056,181.698,110.226z
		 M145.161,53.574c3.014,2.942,6.105,5.708,9.163,8.5l9.148,8.351l9.064,8.443c3.03,2.822,6.035,5.682,9.207,8.451
		c-2.154-3.621-4.684-6.976-7.388-10.181c-2.712-3.199-5.632-6.219-8.713-9.064c-3.082-2.844-6.328-5.512-9.734-7.958
		C152.494,57.677,148.946,55.426,145.161,53.574z M127.37,60.187c0.793,1.865,1.767,3.617,2.884,5.231
		c1.108,1.63,2.279,3.221,3.534,4.748c1.175,1.424,2.408,2.804,3.789,4.065c0.005,0.011,0.011,0.021,0.016,0.032
		c0.049,0.109,0.018,0.141-0.093,0.097l-8.44-3.393c-0.127-0.053-0.162-0.017-0.104,0.107c0.416,0.877,0.83,1.733,1.242,2.571
		c0.504,1.022,0.975,1.847,1.412,2.473c2.451,3.504,5.77,5.916,9.956,7.236c0.423,0.134,1.551,0.302,3.382,0.503
		c0.118,0.011,0.12,0.034,0.007,0.066c-1.721,0.486-3.66,0.614-5.817,0.385c-2.26-0.241-3.921,0.395-4.985,1.908
		c-0.819,1.163-1.198,2.693-1.138,4.59c0.065,2.017,0.662,3.836,1.79,5.457c0.8,1.154,2.071,2.435,3.813,3.844
		c1.413,1.145,2.941,2.132,4.582,2.962c1.797,0.909,3.052,1.5,3.764,1.773c3.696,1.411,7.257,3.096,10.685,5.054
		c0.409,0.234,0.807,0.511,1.193,0.833c0.374,0.314,0.751,0.627,1.128,0.937c0.09,0.076,0.078,0.114-0.038,0.114
		c-0.717,0.002-1.429-0.045-2.137-0.142c-0.955-0.132-1.663-0.179-2.123-0.142c-1.392,0.113-2.71,0.465-3.955,1.055
		c-1.256,0.592-2.33,1.297-3.223,2.116c-0.967,0.881-1.723,1.951-2.269,3.209c-0.727,1.677-0.827,3.259-0.302,4.746
		c0.826,2.329,1.854,4.571,3.084,6.726c0.027,0.048,0.021,0.101,0.018,0.152c-0.002,0.036-0.007,0.07-0.022,0.102
		c-0.015,0.032-0.038,0.058-0.064,0.082c-0.038,0.035-0.075,0.073-0.129,0.083c-1.309,0.234-2.581,0.948-3.816,2.144
		c-0.298,0.289-0.35,0.618-0.156,0.985c0.196,0.372,0.567,0.719,1.113,1.041c2.28,1.341,4.751,1.995,7.41,1.96
		c1.706-0.021,1.858,0.193,0.454,0.642c-0.809,0.261-1.549,0.74-2.22,1.436c-0.763,0.793-1.157,1.201-1.183,1.225
		c-1.409,1.365-2.56,2.927-3.455,4.687c-0.008,0.014-0.012,0.03-0.013,0.046c0,0.007,0.006,0.011,0.007,0.017
		c0.002,0.014,0.007,0.025,0.014,0.038c0.007,0.012,0.014,0.022,0.026,0.031c0.005,0.004,0.006,0.011,0.012,0.014
		c0.015,0.008,0.031,0.012,0.047,0.013c0.438,0.021,1.095,0.084,1.974,0.191c7.255,0.881,13.032-1.529,17.332-7.229
		c0.001-0.002,0.003-0.005,0.005-0.007c0.015-0.021,0.02-0.044,0.03-0.067c0.011-0.024,0.026-0.047,0.033-0.073
		c0.006-0.025,0.003-0.051,0.003-0.077c0.001-0.025,0.006-0.05,0.002-0.075c-0.004-0.025-0.017-0.048-0.025-0.072
		c-0.008-0.024-0.013-0.048-0.026-0.07c-0.013-0.023-0.035-0.04-0.053-0.06c-0.017-0.018-0.028-0.039-0.048-0.054
		c-0.002-0.002-0.005-0.003-0.007-0.005c-3.092-2.23-5.368-5.046-6.827-8.451c-0.537-1.258-0.786-2.379-0.749-3.362
		c0.049-1.302,0.464-2.427,1.246-3.375c0.807-0.978,2.179-1.793,4.114-2.446c2.544-0.858,5.178-1.232,7.902-1.12
		c0.22,0.009,0.251-0.063,0.094-0.215c-2.97-2.919-5.312-6.254-7.028-10.005c-1.392-3.046-2.78-6.221-4.163-9.526
		c-0.056-0.132-0.015-0.172,0.121-0.121c1.786,0.655,3.545,1.062,5.28,1.221c0.687,0.065,0.747-0.1,0.181-0.493
		c-1.055-0.729-2.061-1.512-3.021-2.352c-1.001-0.87-1.934-1.737-2.796-2.602c-4.019-4.017-6.624-8.859-7.812-14.525
		c-0.022-0.105-0.094-0.194-0.194-0.239c-2.535-1.156-4.866-2.824-6.994-5.002c-3.883-3.976-7.149-7.532-9.8-10.671
		c-2.553-3.025-5.483-5.903-8.791-8.634c-0.57-0.471-0.855-0.553-0.866-0.261c-0.002-0.005-0.005-0.009-0.007-0.013
		C126.057,56.288,126.601,58.322,127.37,60.187z M161.387,177.789c-0.011-2.837,0.06-5.647,0.236-8.453
		c0.176-2.806,0.461-5.603,0.829-8.416c0.358-2.818,0.84-5.633,1.265-8.567c-1.664,2.459-2.845,5.201-3.718,8.032
		c-0.864,2.837-1.38,5.783-1.57,8.748c-0.189,2.965-0.05,5.954,0.448,8.877c0.508,2.919,1.334,5.788,2.678,8.437
		C161.509,183.482,161.387,180.63,161.387,177.789z M125.397,149.585c0.855-2.252,1.526-4.455,2.506-6.364
		c1.111-2.252,2.521-4.381,3.93-6.671c1.396-2.272,2.821-4.766,3.641-7.547c0.824-2.734,1.053-5.899-0.142-8.509
		c-0.499,2.784-1.517,5.074-2.768,7.305c-1.237,2.23-2.711,4.332-4.14,6.66c-1.413,2.31-2.788,4.86-3.479,7.719
		c-0.401,1.664-0.507,3.308-0.423,4.928c-0.018-0.042-0.029-0.085-0.047-0.126c-0.595-1.348-1.048-2.744-1.36-4.187
		c-0.754-3.483-1.133-7.009-1.138-10.577c-0.002-1.878,0.386-5.197,1.165-9.956c0.019-0.123-0.024-0.154-0.128-0.094
		c-0.296,0.171-0.495,0.434-0.597,0.788c-1.723,6.013-3.084,12.107-4.083,18.282c-0.599,3.71-0.577,7.265,0.066,10.667
		c0.088,0.46,0.3,1.322,0.635,2.584c0.374,1.409,0.545,2.282,0.513,2.619c-0.046,0.499,0.104,0.565,0.451,0.198
		c0.177-0.187,0.426-0.289,0.684-0.278c1.45,0.062,2.586,0.739,3.407,2.029c0.641,1.008,1.288,2.014,1.943,3.018
		c0.083,0.127,0.148,0.119,0.194-0.024c1.314-4.022,2.779-8.011,4.396-11.968c1.323-3.24,3.074-5.98,5.252-8.218
		c0.106-0.109,0.167-0.205,0.184-0.288c0.03-0.143-0.03-0.168-0.181-0.073c-3.097,1.945-5.729,3.771-7.896,5.478
		c-0.789,0.624-1.647,1.492-2.577,2.602C125.401,149.584,125.4,149.582,125.397,149.585z M142.902,110.203
		c-2.208-0.781-3.952-1.806-5.832-2.86c-1.888-1.06-3.744-2.035-5.464-3.091c-1.725-1.062-3.304-2.193-4.742-3.566
		c-1.439-1.385-2.708-2.958-3.796-5.037c-0.591,2.307,0.066,4.865,1.3,6.957c1.249,2.119,3.126,3.826,5.146,5.055
		c2.035,1.24,4.213,2.063,6.417,2.605C138.129,110.801,140.685,111.107,142.902,110.203z M139.615,185.914
		c1.978-1.55,3.451-3.671,4.593-5.884c1.14-2.227,1.942-4.577,2.593-6.913c0.65-2.341,1.154-4.676,1.643-7.001
		c0.482-2.334,0.982-4.635,1.525-7.071c-1.723,1.824-2.938,4.052-3.917,6.309c-0.974,2.269-1.689,4.601-2.333,6.904l-1.853,6.843
		C141.234,181.366,140.505,183.58,139.615,185.914z M117.038,74.959c0.143,1.517,0.623,2.8,1.3,4
		c0.68,1.193,1.601,2.269,2.734,3.143c1.141,0.876,2.49,1.533,3.952,1.789c1.447,0.251,3.033,0.13,4.319-0.714
		c-1.276-0.824-2.234-1.503-3.16-2.198l-2.667-2.043c-0.893-0.688-1.812-1.402-2.855-2.097
		C119.615,76.15,118.486,75.443,117.038,74.959z M111.656,234.929c-2.633,1.95-4.908,4.326-6.93,6.896
		c-2.015,2.578-3.747,5.381-5.186,8.326c-0.484,0.992-0.922,2.006-1.338,3.028c0.015-0.069,0.028-0.138,0.042-0.207
		c1.083-5.277,2.167-10.407,4.159-15.248c0.966-2.428,2.08-4.799,3.331-7.102c1.269-2.293,2.675-4.514,4.206-6.658
		c2.922-4.142,6.406-7.88,10.224-11.408c0.185-0.131,0.365-0.268,0.554-0.396c0.458-0.31,0.412-0.452-0.139-0.427
		c-2.532,0.127-5.047,0.328-7.545,0.604c-0.65,0.072-1.188,0.174-1.613,0.305c-0.618,0.192-1.122,0.419-1.512,0.68
		c-0.532,0.359-0.619,0.273-0.26-0.257c1.128-1.681,2.328-3.284,3.597-4.808c1.697-2.038,3.766-3.575,6.206-4.614
		c1.177-0.502,2.373-0.963,3.587-1.384c0.047-0.016,0.089-0.043,0.123-0.077c0.123-0.124,0.122-0.322-0.001-0.443
		c-0.169-0.171-0.425-0.32-0.77-0.447c-2.021-0.759-4.138-1.395-6.349-1.908c-0.212-0.049-0.238-0.146-0.076-0.291
		c0.324-0.289,0.616-0.596,0.878-0.919c0.205-0.252,0.425-0.613,0.659-1.082c0.724-1.457,1.541-2.855,2.453-4.194
		c0.671-0.985,1.58-2.085,2.727-3.299c0.981-1.043,1.97-2.078,2.966-3.105c0.479-0.493,0.995-0.938,1.547-1.336
		c0.379-0.275,0.375-0.408-0.011-0.399c-0.079,0.002-0.169,0.016-0.271,0.042c-1.476,0.391-2.966,0.716-4.472,0.975
		c-0.745,0.127-1.467,0.341-2.168,0.642c-0.731,0.312-0.865,0.145-0.402-0.503c0.523-0.735,1.005-1.495,1.446-2.279
		c0.581-1.029,1.058-1.787,1.433-2.272c1.857-2.415,3.996-4.548,6.418-6.4c0.735-0.564,1.455-1.003,2.158-1.315
		c0.775-0.347,1.576-0.63,2.404-0.85c0.446-0.12,0.45-0.253,0.01-0.399c-0.222-0.072-0.458-0.081-0.707-0.028
		c-0.338,0.074-0.515,0.112-0.531,0.114c-4.27,0.585-8.173,2.098-11.712,4.538c-1.827,1.258-3.262,2.429-4.305,3.514
		c-3.296,3.434-6.312,7.424-9.047,11.968c-0.002,0.005-0.436,0.764-1.301,2.279c-1.716,3.004-3.751,5.779-6.105,8.326
		c-0.435,0.469-0.832,0.968-1.193,1.495c-0.329,0.479-0.242,0.565,0.26,0.26c2.579-1.575,5.355-1.995,8.329-1.259
		c0.007,0.002,0.013,0.004,0.02,0.006c0.079,0.031,0.116,0.122,0.084,0.202c-0.893,2.273-2.1,5.153-3.621,8.638
		c-1.284,2.944-2.728,5.687-4.333,8.229c-1.057,1.67-2.262,3.16-3.615,4.472c-1.383,1.341-2.851,2.59-4.402,3.747
		c-0.451,0.338-0.5,0.583-0.149,0.735c0.092,0.04,0.208,0.043,0.326,0.007c2.095-0.599,4.19-1.199,6.286-1.8
		c1.623-0.467,3.217-1.014,4.78-1.641c1.317-0.528,2.382-0.99,3.25-1.4c-1.051,1.385-2.041,2.819-2.947,4.308
		c-1.42,2.374-2.652,4.864-3.678,7.439c-1.039,2.567-1.824,5.246-2.408,7.943c-0.574,2.699-0.947,5.394-1.264,8.082
		c-0.594,5.178-0.915,10.389-0.772,15.606c-0.002,0.295-0.022,0.589-0.016,0.884c1.23-3.031,2.348-6.002,3.574-8.915
		c1.215-2.914,2.495-5.775,3.873-8.589c1.378-2.815,2.85-5.581,4.404-8.329C108.366,240.471,110.022,237.765,111.656,234.929z
		 M135.996,309.345c-1.846-5.34-4.44-10.332-7.08-15.188c-2.636-4.845-5.272-9.629-7.379-14.63
		c-2.109-4.993-3.638-10.233-3.956-15.804c-0.088,0.472-0.144,0.949-0.204,1.425c-0.075-0.299-0.158-0.597-0.255-0.89
		c-0.478,2.67-1.154,5.112-1.883,7.61c-0.723,2.49-1.462,5.034-1.894,7.73c-0.443,2.699-0.455,5.537,0.046,8.237
		c0.5,2.702,1.466,5.317,3.002,7.559c-0.28-2.698-0.508-5.255-0.494-7.796c-0.002-2.543,0.202-5.006,0.606-7.502
		c0.334-2.118,0.755-4.288,1.045-6.525c0.354,2.318,0.915,4.612,1.63,6.826c1.738,5.386,4.281,10.42,6.923,15.288
		c2.64,4.858,5.335,9.618,7.546,14.581c2.215,4.957,3.902,10.143,4.459,15.695C138.911,320.412,137.831,314.651,135.996,309.345z
		 M158.155,282.177c2.44,1.797,4.634,3.855,6.581,6.175c0.127,0.15,0.216,0.185,0.267,0.104c0.041-0.062,0.034-0.171-0.018-0.284
		c-0.273-0.62-0.594-1.213-0.964-1.78c-3.453-5.289-6.295-10.88-8.527-16.773c-0.125-0.326-0.521-1.492-1.19-3.497
		c-0.389-1.168-0.821-2.322-1.297-3.462c-0.303-0.726-0.685-0.804-1.145-0.232c-0.035,0.044-0.08,0.075-0.124,0.104
		c-0.03,0.019-0.061,0.034-0.093,0.047c-0.03,0.011-0.061,0.023-0.092,0.028c-0.032,0.006-0.065,0.007-0.098,0.006
		c-0.033,0-0.065-0.002-0.098-0.008c-0.031-0.006-0.061-0.018-0.091-0.03c-0.032-0.013-0.063-0.028-0.093-0.048
		c-0.044-0.03-0.088-0.061-0.123-0.106c-1.998-2.546-3.551-5.372-4.659-8.478c-0.21-0.59-0.423-0.59-0.638,0
		c-0.839,2.306-1.91,4.569-3.212,6.789c-0.483,0.826-1.072,1.377-1.766,1.655c-0.022,0.009-0.045,0.002-0.068-0.002
		c-0.018-0.003-0.035-0.004-0.05-0.013c-0.015-0.009-0.025-0.024-0.037-0.039c-0.014-0.019-0.032-0.035-0.036-0.061
		c-0.564-3.437-0.997-6.889-1.298-10.358c-0.183-2.112-0.432-4.216-0.749-6.314c-0.631-4.17-0.952-7.69-0.961-10.56
		c-0.016-4.246,0.846-8.283,2.588-12.11c0.106-0.234,0.061-0.267-0.135-0.101c-1.684,1.448-3.462,2.765-5.335,3.951
		c-2.484,1.573-4.421,3.307-5.811,5.203c-1.464,1.996-2.665,4.409-3.601,7.24c-0.497,1.506-0.951,3.304-1.36,5.394
		c-0.185,0.949-0.329,1.837-0.441,2.678c0-0.026-0.001-0.053-0.001-0.079c0.002-4.955,1.106-9.648,3.007-14.228
		c1.828-4.593,4.252-9.071,6.15-13.882c0.937-2.405,1.803-4.87,2.285-7.441c0.49-2.56,0.666-5.189,0.338-7.735
		c-0.373,2.545-1,4.971-1.853,7.313c-0.831,2.348-1.947,4.589-3.066,6.827c-2.263,4.469-4.88,8.862-6.823,13.725
		c-0.956,2.428-1.811,4.946-2.229,7.592c-0.488,2.629-0.52,5.311-0.318,7.923c0.459,5.241,1.951,10.214,3.904,14.943
		c-0.085-0.639-0.17-1.276-0.256-1.913c0.261,0.836,0.548,1.667,0.881,2.492c0.032,0.083,0.07,0.151,0.114,0.205
		c0.178,0.215,0.26,0.133,0.247-0.246c-0.044-1.258-0.019-2.513,0.076-3.764c0.083-1.117,0.294-2.351,0.631-3.701
		c0.754-3.03,1.597-5.825,2.529-8.385c0.041-0.111,0.115-0.173,0.219-0.187c0.024-0.003,0.043,0.013,0.064,0.023
		c0.018,0.008,0.037,0.013,0.051,0.028c0.014,0.016,0.019,0.038,0.027,0.059c0.01,0.025,0.024,0.047,0.024,0.077
		c-0.056,1.561-0.075,2.508-0.059,2.841c0.093,2.037,0.491,5.13,1.197,9.276c0.368,2.155,0.674,4.188,0.919,6.099
		c0.261,2.042,0.539,4.082,0.833,6.119c0.398,2.777,1.124,5.465,2.179,8.062c1.833,4.533,4.802,8.033,8.905,10.501
		c0.379,0.229,0.48,0.14,0.302-0.267c-0.381-0.863-0.632-1.761-0.753-2.695c-0.231-1.762-0.494-3.52-0.787-5.273
		c-0.768-4.577-0.945-9.07-0.531-13.481c0.039-0.421,0.204-0.478,0.493-0.17C147.085,273.208,152.41,277.949,158.155,282.177z
		 M183.406,345.138c-1.036-4.294-2.811-8.323-4.751-12.162c-3.572-7.07-7.581-13.683-9.209-21.405
		c-0.052-0.447-0.089-0.895-0.145-1.341c-0.025-0.2-0.087-0.326-0.178-0.394c-0.01-0.064-0.024-0.127-0.034-0.191
		c-0.008,0.051-0.01,0.102-0.018,0.152c-0.04-0.017-0.085-0.024-0.135-0.022c-0.096,0.006-0.181,0.091-0.211,0.208
		c-0.148,0.539-0.416,1.126-0.805,1.762c-1.001,1.637-2.011,3.033-3.028,4.187c-0.008,0.008-0.017,0.016-0.026,0.022
		c-0.061,0.039-0.143,0.022-0.182-0.039c-0.877-1.365-1.424-2.761-1.641-4.191c-0.386-2.535-0.701-5.046-0.943-7.535
		c-0.003-0.033-0.014-0.065-0.032-0.093c-0.064-0.102-0.198-0.134-0.301-0.07c-2.463,1.522-4.351,3.59-5.665,6.206
		c-0.123,0.245-0.249,0.246-0.378,0.003c-0.736-1.383-1.429-2.728-2.082-4.035c-1.143-2.287-1.698-4.69-1.665-7.209
		c0.002-0.335,0.075-1.095,0.218-2.279c0.093-0.761,0.145-1.526,0.156-2.296c0.002-0.08-0.024-0.148-0.069-0.18
		c-0.04-0.03-0.079-0.037-0.118-0.021c-0.039,0.018-0.073,0.065-0.101,0.139c-0.731,2.056-1.356,3.705-1.876,4.947
		c-1.529,3.649-2.196,7.402-2.002,11.257c0,0.014-0.001,0.329-0.003,0.947c-0.004,0.444,0.057,0.986,0.184,1.627
		c0.231,1.186,0.449,2.374,0.652,3.563c0.456,2.646,1.207,5.202,2.252,7.67c0.368,0.867,1.432,2.934,3.191,6.199
		c0.056,0.102,0.09,0.096,0.105-0.017c0.127-1.015,0.271-2.027,0.434-3.035c0.257-1.577,0.947-2.766,2.071-3.566
		c1.036-0.74,2.264-1.038,3.684-0.895c1.61,0.162,2.929,0.889,3.958,2.182c2.128,2.667,3.774,5.873,4.94,9.62
		c0.053,0.169,0.177,0.718,0.371,1.648c0.115,0.553,0.291,1.089,0.527,1.61c0.008,0.019,0.02,0.037,0.033,0.052
		c0.051,0.06,0.121,0.076,0.154,0.034c0.028-0.039,0.036-0.104,0.024-0.194c-0.144-1.068-0.238-2.427-0.285-4.076
		c-0.117-4.302-0.244-8.606-0.376-12.91c0.15,0.522,0.31,1.04,0.478,1.552c1.373,4.162,3.304,8.055,5.22,11.851
		c1.91,3.783,3.774,7.533,5.192,11.438c1.42,3.9,2.351,7.972,2.294,12.303C184.683,354.029,184.435,349.397,183.406,345.138z
		 M203.317,389.052c-0.685-3.621-1.509-7.134-2.27-10.652c-0.771-3.513-1.519-7.013-2.218-10.524
		c-0.7-3.511-1.349-7.031-1.982-10.572c-0.643-3.542-1.226-7.103-1.974-10.711c-0.579,3.642-0.675,7.322-0.521,10.987
		c0.164,3.666,0.624,7.319,1.338,10.92c0.715,3.601,1.687,7.152,2.937,10.602C199.887,382.548,201.385,385.911,203.317,389.052z
		 M227.432,373.073c0.097,0.067,0.118,0.051,0.063-0.049c-3.129-5.636-6.773-12.626-10.931-20.97
		c-0.87-1.741-2.076-3.39-3.618-4.947c-1.031-1.041-1.558-1.572-1.578-1.592c-0.796-0.842-1.595-1.684-2.397-2.525
		c-0.342-0.361-0.429-0.308-0.26,0.16c0.13,0.358,0.206,0.746,0.229,1.162c0.141,2.657,0.554,5.261,1.239,7.812
		c0.439,1.635,1.109,3.297,2.008,4.985c0.847,1.589,1.76,3.14,2.741,4.652c1.188,1.829,2.66,3.508,4.413,5.037
		C222.028,369.147,224.725,371.239,227.432,373.073z M273.521,386.182c-0.247-1.355-0.402-2.277-0.465-2.765
		c-0.118-0.925-0.256-1.848-0.416-2.768c-0.002-0.01-0.005-0.021-0.009-0.03c-0.006-0.013-0.019-0.017-0.027-0.027
		c-0.012-0.014-0.021-0.027-0.037-0.036c-0.016-0.009-0.032-0.009-0.05-0.011c-0.013-0.002-0.024-0.011-0.038-0.008
		c-0.01,0.002-0.021,0.005-0.03,0.009c-5.023,2.065-8.323,3.344-9.9,3.837c-3.934,1.226-7.957,1.886-12.069,1.981
		c-0.569,0.014-1.249-0.031-2.04-0.135c-0.68-0.09-1.362-0.159-2.047-0.208c-1.293-0.092-2.308-0.215-3.045-0.368
		c-5.352-1.103-10.474-2.912-15.368-5.426c-0.036-0.018-0.074-0.029-0.114-0.032c-0.022-0.002-0.038,0.016-0.059,0.019
		c-0.041,0.005-0.072,0.014-0.108,0.035c-0.036,0.02-0.061,0.041-0.087,0.074c-0.014,0.017-0.037,0.021-0.047,0.04
		c-0.018,0.036-0.029,0.074-0.032,0.114c-0.18,2.331-0.465,4.574-0.854,6.73c-0.083,0.451-0.13,0.885-0.142,1.301
		c-0.014,0.437-0.027,0.875-0.038,1.315c0,0,0,0,0,0.001c-0.001,0.029,0.016,0.05,0.026,0.075c0.008,0.018,0.007,0.042,0.021,0.056
		c0.015,0.017,0.04,0.018,0.06,0.029c0.021,0.01,0.038,0.029,0.063,0.03h0.001c0.412,0.021,0.744-0.07,0.996-0.274
		c1.274-1.031,2.662-1.336,4.163-0.912c2.015,0.569,3.92,1.785,5.717,3.649c1.545,1.605,3.238,3.034,5.079,4.288
		c0.652,0.444,1.317,0.704,1.995,0.781c0.77,0.088,1.405-0.192,1.904-0.84c1.087-1.401,1.874-2.974,2.359-4.718
		c0.158-0.569,0.338-0.576,0.542-0.021c0.261,0.708,0.586,1.471,0.975,2.29c0.435,0.918,0.889,1.606,1.363,2.064
		c1.168,1.131,2.52,1.51,4.056,1.138c0.904-0.217,2.018-0.873,3.34-1.967c1.631-1.344,3.197-2.76,4.701-4.25
		c1.929-1.913,4.152-2.782,6.671-2.609c1.015,0.069,1.786,0.592,2.31,1.568c0.09,0.167,0.17,0.282,0.239,0.347
		c0.233,0.217,0.396,0.128,0.486-0.267C273.824,389.134,273.81,387.769,273.521,386.182z M265.671,357.237
		c-0.053,0.883-0.385,2.065-0.996,3.545c-0.044,0.108-0.137,0.18-0.236,0.184c-0.306,0.019-0.509-0.119-0.611-0.413
		c-0.441-1.258-1.128-2.379-2.06-3.362c-0.284-0.298-0.429-0.241-0.434,0.173c-0.016,1.566-0.472,3.027-1.367,4.385
		c-0.025,0.039-0.059,0.067-0.092,0.095c-0.022,0.019-0.047,0.034-0.071,0.048c-0.023,0.012-0.046,0.024-0.071,0.032
		c-0.025,0.008-0.051,0.013-0.077,0.016c-0.025,0.003-0.051,0.006-0.077,0.004c-0.025-0.002-0.05-0.007-0.074-0.014
		c-0.026-0.007-0.052-0.016-0.076-0.028c-0.036-0.019-0.073-0.039-0.103-0.07l-1.873-1.974c-0.03-0.031-0.067-0.055-0.108-0.07
		c-0.013-0.005-0.025,0.003-0.038,0.001c-0.034-0.008-0.061-0.004-0.094,0.002s-0.06,0.01-0.087,0.028
		c-0.011,0.007-0.025,0.003-0.035,0.011c-0.03,0.026-0.052,0.06-0.064,0.098c-0.152,0.463-0.341,0.905-0.565,1.329
		c-0.264,0.502-0.542,0.836-0.836,1.003c-0.319,0.18-0.66,0.214-1.023,0.101c-0.259-0.079-0.509-0.274-0.749-0.586
		c-0.724-0.946-1.339-1.98-1.845-3.101c-0.134-0.298-0.249-0.29-0.344,0.024c-0.164,0.539-0.324,1.156-0.479,1.853
		c-0.169,0.763-0.57,1.302-1.204,1.617c-0.28,0.138-0.608,0.139-0.888,0.003c-1.406-0.68-2.298-1.718-2.675-3.115
		c-0.222-0.814-0.389-0.804-0.5,0.031c-0.134,0.997-0.541,1.861-1.221,2.591c-0.509,0.548-0.993,0.532-1.453-0.049
		c-1.018-1.283-1.906-2.658-2.665-4.125c-0.134-0.257-0.274-0.26-0.419-0.01c-0.336,0.571-0.562,1.208-0.68,1.911
		c-0.146,0.858-0.409,1.674-0.791,2.449c-0.011,0.021-0.031,0.032-0.05,0.043c-0.013,0.007-0.027,0.012-0.041,0.014
		c-0.015,0.002-0.029,0.001-0.043-0.003c-0.022-0.006-0.044-0.012-0.06-0.03c-0.948-1.071-1.567-2.278-1.856-3.622
		c-0.331-1.549-0.648-3.452-0.95-5.707c-0.018-0.128-0.072-0.232-0.149-0.284c-0.185-0.132-0.339-0.058-0.461,0.222
		c-0.807,1.848-1.624,3.691-2.449,5.53c-1.078,2.401-1.536,5.067-1.374,8c0.065,1.173,0.332,2.277,0.801,3.313
		c0.918,2.026,2.168,3.845,3.75,5.457c0.567,0.578,1.248,0.944,2.043,1.096c0.287,0.056,0.381,0.005,0.284-0.153
		c-0.03-0.046-0.083-0.093-0.159-0.139c-0.363-0.213-0.649-0.571-0.857-1.075c-0.483-1.161-0.675-2.257-0.576-3.289
		c0.173-1.818,0.821-3.519,1.942-5.103c0.029-0.042,0.067-0.072,0.107-0.1c0.025-0.019,0.053-0.033,0.081-0.046
		c0.026-0.012,0.052-0.023,0.079-0.03c0.028-0.007,0.057-0.009,0.086-0.01c0.029-0.001,0.058-0.002,0.087,0.002
		c0.028,0.004,0.055,0.013,0.081,0.022c0.029,0.01,0.059,0.021,0.086,0.038c0.041,0.025,0.082,0.051,0.115,0.09
		c0.449,0.525,0.823,1.027,1.124,1.505c0.599,0.96,1.562,1.65,2.89,2.071c0.007,0.002,0.014,0.004,0.021,0.006
		c0.023,0.006,0.046,0.002,0.069,0.004c0.027,0.002,0.053,0.007,0.08,0.004c0.026-0.003,0.049-0.014,0.074-0.022
		c0.024-0.008,0.049-0.013,0.071-0.026c0.022-0.013,0.04-0.031,0.06-0.048c0.02-0.017,0.041-0.031,0.058-0.051
		c0.017-0.021,0.026-0.046,0.039-0.07c0.011-0.021,0.026-0.038,0.033-0.061c0.002-0.007,0.004-0.013,0.006-0.02
		c0.336-1.362,0.907-2.613,1.714-3.754c0.451-0.638,0.978-0.747,1.582-0.326c0.393,0.275,0.86,0.82,1.401,1.634
		c0.537,0.812,1.182,1.418,1.936,1.818c0.382,0.204,0.678,0.117,0.888-0.26c0.446-0.793,0.91-1.573,1.391-2.338
		c0.62-0.985,1.319-1.282,2.099-0.892c0.368,0.187,0.799,0.645,1.294,1.374c0.766,1.131,1.268,1.806,1.506,2.026
		c0.576,0.53,1.125,0.657,1.647,0.382c0.292-0.153,0.592-0.529,0.902-1.127c0.352-0.675,0.716-1.345,1.093-2.009
		c0.054-0.094,0.157-0.145,0.257-0.128c0.971,0.15,1.71,0.634,2.217,1.45c0.606,0.981,0.975,2.047,1.106,3.198
		c0.134,1.203,0.193,2.12,0.177,2.751c-0.025,0.978-0.326,1.889-0.902,2.734c-0.064,0.095-0.046,0.117,0.056,0.066
		c1.226-0.611,2.388-1.655,3.486-3.133c3.027-4.077,3.846-8.346,2.456-12.808c-0.328-1.05-0.872-2.406-1.63-4.069
		c-0.604-1.325-1.297-2.612-2.082-3.861c-0.397-0.634-0.588-0.577-0.572,0.17C265.79,354.025,265.763,355.678,265.671,357.237z
		 M291.765,343.197c-0.014-0.19-0.078-0.208-0.191-0.055c-0.449,0.608-0.938,1.112-1.467,1.512c-1.603,1.205-2.904,2.678-3.903,4.42
		c-1.573,2.738-3.032,5.535-4.378,8.392c-1.693,3.592-2.542,5.393-2.546,5.405c-1.517,3.083-3.084,6.142-4.701,9.179
		c-0.201,0.379-0.116,0.461,0.257,0.246c1.767-1.018,3.439-2.206,5.016-3.566c1.557-1.344,3.002-2.788,4.336-4.333
		c3.541-4.098,5.916-8.858,7.126-14.279C291.79,347.984,291.94,345.677,291.765,343.197z M305.477,346.593
		c-0.748,3.607-1.331,7.169-1.974,10.711c-0.633,3.541-1.282,7.061-1.982,10.572c-0.699,3.511-1.447,7.011-2.218,10.524
		c-0.761,3.518-1.585,7.032-2.27,10.652c1.932-3.142,3.43-6.504,4.689-9.95c1.25-3.45,2.222-7.001,2.938-10.602
		c0.714-3.601,1.173-7.254,1.338-10.92C306.152,353.914,306.056,350.234,305.477,346.593z M313.642,295.095
		c2.614-4.801,4.382-10.095,5.175-15.542c0.793-5.447,0.607-11.026-0.532-16.373c-1.144-5.34-3.206-10.482-6.251-14.92
		c1.844,5.044,3.149,10.157,3.767,15.336c0.622,5.172,0.591,10.386-0.15,15.497c-0.122,0.838-0.269,1.672-0.429,2.504
		c-0.03-0.973-0.09-1.948-0.2-2.927c-0.564-5.03-2.523-9.462-5.876-13.297c-0.803-0.916-1.709-1.864-2.72-2.845
		c-1.149-1.112-2.181-1.928-3.095-2.446c-1.772-1.006-3.549-2.004-5.332-2.994c-1.385-0.768-2.362-1.857-2.931-3.268
		c-0.469-1.163-0.625-2.548-0.468-4.152c0.271-2.764,1.382-5.213,3.333-7.347c1.015-1.11,2.085-2.021,3.201-2.771
		c-0.114,0.14-0.232,0.277-0.342,0.421c0.743-0.552,1.508-1.046,2.283-1.513c0.259-0.121,0.513-0.259,0.776-0.362
		c3.018-1.178,5.618-2.329,7.815-3.452c1.765-0.599,3.555-1.152,5.354-1.713c2.86-0.889,5.764-1.818,8.622-3.06
		c2.85-1.239,5.586-2.766,8.149-4.563c5.104-3.596,9.51-8.411,12.198-14.118c1.639-3.452,2.664-7.231,2.884-11
		c0.136,1.801,0.262,3.592,0.351,5.38c0.21,3.954,0.301,7.882,0.241,11.811c-0.059,3.928-0.268,7.852-0.595,11.798
		c-0.314,3.951-0.797,7.902-1.206,11.988c2.004-3.591,3.363-7.496,4.316-11.492c0.94-4.002,1.425-8.117,1.484-12.235
		c0.058-4.118-0.306-8.245-1.129-12.272c-0.835-4.022-2.078-7.965-3.97-11.615c0,0.002,0,0.004,0,0.006
		c-0.035-0.154-0.064-0.31-0.101-0.463c-0.243,6.052-2.097,11.703-5.055,16.613c-2.951,4.911-7.046,9.023-11.727,12.333
		c-2.349,1.648-4.837,3.115-7.435,4.39c-1.228,0.604-2.492,1.169-3.775,1.722c1.128-1.294,2.137-2.71,3.02-4.251
		c1.846-3.222,3.068-6.644,3.667-10.268c0.259-1.557,0.431-3.013,0.517-4.371c0.086-1.309,0.095-2.776,0.028-4.402
		c-0.102-2.491-0.286-5.077-0.552-7.76c-0.053-0.546-0.276-0.629-0.669-0.25c-0.557,0.536-1.013,1.073-1.367,1.61
		c-2.525,3.814-5.023,7.646-7.493,11.496c-0.462,0.72-0.955,1.411-1.467,2.084c-3.004,2.506-6.274,4.476-9.739,5.971
		c-4.27,1.842-8.765,3.009-13.376,3.605c-4.634,0.619-9.51,0.804-14.409,1.784c-2.443,0.491-4.874,1.198-7.167,2.232
		c-2.283,1.038-4.441,2.413-6.13,4.21c4.405-2.192,9.042-2.962,13.732-3.324c4.695-0.355,9.533-0.283,14.5-0.938
		c0.74-0.096,1.479-0.219,2.215-0.356c-2.894,1.082-5.4,2.221-7.518,3.418c-1.799,1.018-3.194,2.429-4.184,4.236
		c-0.708,1.295-1.167,2.517-1.377,3.667c-0.24,1.321-0.145,2.66,0.288,4.017c0.641,2.01,1.508,3.917,2.601,5.72
		c0.25,0.409,0.938,1.627,2.065,3.653c0.483,0.865,0.729,1.724,0.739,2.577c0.012,1.085,0.019,1.636,0.021,1.655
		c0.501,4.586,1.434,8.899,2.796,12.939c1.025,3.03,1.782,5.931,2.272,8.704c0.121,0.678,0.225,1.6,0.313,2.768
		c0.092,1.235,0.207,2.159,0.343,2.772c0.134,0.601,0.038,0.752-0.288,0.451c-0.077-0.072-0.143-0.167-0.198-0.284
		c-2.363-4.952-5.906-8.655-10.629-11.111c-1.85-0.962-3.535-1.632-5.054-2.009c-1.786-0.444-3.621-0.569-5.509-0.375
		c-1.853,0.19-3.704,0.383-5.554,0.579c-0.354,0.037-0.354,0.095,0,0.173c2.752,0.606,5.116,1.88,7.091,3.823
		c0.03,0.028,0.392,0.368,1.086,1.02c0.474,0.446,0.89,0.944,1.249,1.492c0.063,0.097,0.036,0.142-0.08,0.135
		c-1.156-0.076-2.311-0.063-3.462,0.042c-1.823,0.164-2.742,0.246-2.758,0.246c-3.603,0.245-7.165,0.746-10.688,1.502
		c-3.726,0.803-5.867,1.23-6.425,1.284c-2.449,0.238-4.747,0.086-6.893-0.458c-3.504-0.89-6.611-1.513-9.321-1.866
		c-2.711-0.354-6.135-0.642-10.272-0.864c-0.014,0-0.32-0.028-0.919-0.083c-0.587-0.056-1.203-0.028-1.846,0.083
		c-0.277,0.046-0.349-0.054-0.215-0.302c0.194-0.361,0.408-0.698,0.642-1.013c0.22-0.294,0.508-0.568,0.864-0.822
		c1.82-1.309,3.8-2.315,5.939-3.018c1.05-0.345,2.097-0.486,3.14-0.423c0.518,0.03,0.556-0.09,0.115-0.361
		c-0.798-0.488-1.653-0.785-2.564-0.892c-0.978-0.116-1.483-0.176-1.516-0.18c-4.938-0.796-9.362,0.124-13.273,2.758
		c-3.143,2.121-5.758,5.084-7.847,8.891c-0.208,0.377-0.472,1.023-0.791,1.939c-0.043,0.121-0.113,0.215-0.198,0.264
		c-0.18,0.106-0.37,0.125-0.569,0.055c-0.09-0.029-0.14-0.133-0.115-0.239c0.143-0.574,0.244-1.153,0.302-1.738
		c0.507-4.995,1.441-9.908,2.803-14.736c1.251-4.433,2.011-8.948,2.279-13.543c0.032-0.541,0.098-0.994,0.198-1.36
		c0.132-0.493,0.288-0.926,0.468-1.301c0.71-1.466,1.679-3.301,2.907-5.505c0.826-1.485,1.302-3.121,1.43-4.909
		c0.124-1.771-0.093-3.419-0.652-4.943c-0.749-2.037-2.035-3.639-3.857-4.805c-2.33-1.492-4.744-2.597-7.234-3.345
		c4.899,0.628,9.672,0.565,14.306,0.916c4.691,0.363,9.328,1.132,13.732,3.324c-1.688-1.797-3.847-3.172-6.13-4.21
		c-2.292-1.035-4.723-1.741-7.167-2.232c-4.899-0.98-9.775-1.165-14.409-1.784c-4.611-0.597-9.107-1.763-13.376-3.605
		c-4.052-1.748-7.839-4.143-11.243-7.291c-0.016-0.024-0.033-0.046-0.049-0.07c-1.934-2.854-4.358-6.939-7.275-12.256
		c-0.37-0.673-0.808-1.302-1.315-1.887c-0.111-0.125-0.176-0.104-0.194,0.063c-0.222,1.859-0.453,3.725-0.694,5.596
		c-0.238,1.846-0.395,3.593-0.468,5.242c-0.125,2.847-0.17,4.6-0.135,5.259c0.134,2.539,0.279,4.187,0.434,4.943
		c0.201,0.976,0.623,2.387,1.266,4.232c0.59,1.693,1.155,3.05,1.696,4.073c0.74,1.397,1.599,2.68,2.566,3.859
		c-0.104-0.048-0.212-0.092-0.315-0.141c-2.656-1.265-5.219-2.705-7.619-4.365c-4.806-3.299-9.033-7.432-12.066-12.404
		c-3.044-4.969-4.953-10.713-5.19-16.866c-0.038,0.157-0.067,0.316-0.102,0.473c0-0.005,0.001-0.01,0.001-0.016
		c-1.893,3.65-3.135,7.593-3.97,11.615c-0.823,4.028-1.188,8.154-1.129,12.272c0.059,4.118,0.543,8.233,1.484,12.235
		c0.952,3.996,2.311,7.901,4.316,11.492c-0.409-4.086-0.891-8.037-1.206-11.988c-0.327-3.945-0.535-7.869-0.595-11.798
		c-0.06-3.928,0.032-7.857,0.242-11.811c0.09-1.811,0.218-3.624,0.356-5.448c0.222,3.891,1.301,7.795,3.027,11.345
		c2.785,5.782,7.331,10.612,12.567,14.195c2.618,1.808,5.431,3.305,8.34,4.531c2.942,1.234,5.935,2.081,8.871,2.895
		c1.881,0.523,3.75,1.024,5.593,1.575c0.934,0.311,1.871,0.612,2.811,0.902c0.088,0.031,0.177,0.057,0.265,0.088
		c2.817,0.971,5.511,2.233,7.997,4.033c0.531,0.486,0.999,1.012,1.388,1.592c1.008,1.506,1.728,3.137,2.158,4.895
		c0.41,1.679,0.448,3.141,0.115,4.385c-0.398,1.478-1.242,2.761-2.533,3.851c-1.584,1.334-3.044,2.52-4.381,3.556
		c-2.322,1.799-3.775,2.987-4.36,3.563c-2.285,2.248-4.025,4.761-5.221,7.538c-1.596,3.705-2.291,7.683-2.085,11.934
		c0.035,0.723,0.087,1.462,0.152,2.214c-0.639-2.31-1.142-4.653-1.485-7.019c-0.741-5.111-0.772-10.325-0.15-15.497
		c0.617-5.18,1.923-10.292,3.767-15.336c-3.045,4.438-5.107,9.581-6.251,14.92c-1.139,5.347-1.325,10.926-0.532,16.373
		c0.793,5.447,2.561,10.741,5.175,15.542c2.202,4.033,4.993,7.74,8.312,10.836c0.072,1.12,0.135,2.24,0.181,3.36
		c0.072,1.725,0.191,3.025,0.357,3.899c0.539,2.87,1.599,5.722,3.181,8.555c1.538,2.752,3.475,5.296,5.811,7.632
		c2.84,2.838,5.932,5.259,9.276,7.264c1.746,1.048,3.474,1.887,5.183,2.518c1.746,0.648,3.597,1.181,5.554,1.599
		c2.553,0.546,4.694,0.942,6.421,1.19c0.014,0.002,0.028,0.002,0.042-0.001c0.011-0.002,0.016-0.012,0.025-0.016
		c0.016-0.007,0.028-0.013,0.04-0.025c0.012-0.012,0.018-0.024,0.024-0.039c0.004-0.009,0.014-0.014,0.016-0.024
		c0.002-0.014,0.002-0.027-0.001-0.041c-0.063-0.308-0.234-0.533-0.517-0.676c-2.359-1.193-4.26-2.822-5.703-4.884
		c-3.774-5.405-6.089-11.377-6.945-17.918c-0.053-0.402-0.127-0.821-0.222-1.256c-0.116-0.544-0.186-0.966-0.212-1.266
		c-0.055-0.655,0.137-0.738,0.576-0.25c3.189,3.531,6.875,5.488,11.059,5.87c0.955,0.086,1.947,0.206,2.977,0.361
		c0.442,0.067,0.494-0.045,0.156-0.336c-0.969-0.842-1.83-1.82-2.581-2.935c-1.466-2.174-2.838-4.404-4.114-6.692
		c-0.571-1.022-1.127-2.441-1.669-4.257c-0.328-1.101-0.505-2.151-0.531-3.15c-0.014-0.578,0.074-1.628,0.264-3.15
		c0.22-1.778,0.548-3.537,0.985-5.276c0.479-1.908,0.852-3.155,1.121-3.74c0.599-1.3,1.503-2.294,2.713-2.983
		c1.288-0.733,2.64-1.318,4.055-1.755c3.376-1.045,6.826-1.661,10.348-1.846c0.337-0.018,0.996,0.008,1.974,0.08
		c0.662,0.049,1.323,0.03,1.984-0.055c0.079-0.009,0.157-0.008,0.236,0.003c1.48,0.217,2.709,0.279,3.688,0.184
		c0.895-0.088,1.349-0.133,1.36-0.135c3.971-0.164,7.903,0.148,11.798,0.937c2.886,0.585,5.281,1.419,7.185,2.501
		c1.408,0.802,2.391,1.67,2.949,2.602c1.353,2.266,2.297,4.901,2.834,7.902c0.303,1.704,0.477,3.031,0.521,3.979
		c0.063,1.369-0.082,2.709-0.434,4.021c-0.358,1.344-1.111,3.158-2.258,5.443c-1.621,3.221-3.758,6.092-6.411,8.61
		c-0.086,0.079-0.073,0.1,0.039,0.066c2.199-0.692,3.965-1.021,5.297-0.989c1.305,0.03,2.497-0.309,3.577-1.016
		c2.491-1.635,4.864-3.457,7.119-5.467c0.236-0.21,0.315-0.163,0.239,0.142c-1.011,4.082-2.186,8.128-3.528,12.138
		c-0.724,2.162-1.431,3.912-2.12,5.249c-0.87,1.688-1.874,3.297-3.011,4.826c-0.941,1.267-1.615,2.111-2.022,2.532
		c-0.759,0.786-1.641,1.433-2.647,1.939c-0.236,0.12-0.314,0.235-0.232,0.343c0.052,0.07,0.168,0.104,0.302,0.087
		c4.575-0.58,8.97-2.15,13.186-4.707c5.314-3.224,9.842-7.024,13.581-11.399c4.184-4.898,6.299-10.597,6.345-17.095
		c0-0.021-0.009-0.175-0.027-0.461c-0.033-0.534,0.143-1.072,0.527-1.613c0.001-0.001,0.001-0.001,0.001-0.002
		C308.432,303.137,311.353,299.288,313.642,295.095z M354.082,305.064c-0.192-1.61-0.61-3.299-1.256-5.068
		c-0.721-1.989-1.606-3.903-2.654-5.741c-0.131-0.229-0.236-0.316-0.312-0.26c-0.169,0.119-0.24,0.334-0.177,0.531
		c0.754,2.361,0.927,4.568,0.52,6.619c-0.613,3.097-2.018,6.279-4.215,9.547c-0.064,0.097-0.117,0.09-0.156-0.021
		c-1.076-3.136-3.231-5.405-6.466-6.806c-0.014-0.006-0.03-0.01-0.045-0.01c-0.067-0.002-0.123,0.051-0.126,0.118
		c-0.079,3.187-0.296,6.273-0.652,9.259c-0.002,0.021-0.016,0.29-0.042,0.808c-0.023,0.449-0.143,0.889-0.361,1.322
		c-0.204,0.407-0.489,0.475-0.857,0.205c-1.55-1.135-2.816-2.567-3.799-4.295c-0.453-0.798-0.985-1.441-1.596-1.929
		c-0.092-0.076-0.127-0.056-0.104,0.062c0.018,0.089,0.028,0.178,0.045,0.268c-1.322,8.554-5.699,15.66-9.561,23.304
		c-1.94,3.839-3.715,7.868-4.75,12.162c-1.03,4.259-1.277,8.891,0.121,13.023c-0.057-4.331,0.874-8.402,2.293-12.303
		c1.418-3.905,3.282-7.655,5.192-11.438c1.917-3.796,3.848-7.69,5.221-11.851c0.776-2.357,1.36-4.83,1.603-7.317
		c-0.039,0.88-0.055,1.528-0.044,1.937c0.16,6.968,0.151,13.935-0.024,20.901c-0.016,0.645,0.079,0.81,0.285,0.493
		c0.055-0.083,0.093-0.188,0.114-0.316c0.837-4.734,2.722-9.003,5.654-12.808c1.24-1.607,2.844-2.311,4.812-2.113
		c3.927,0.396,5.557,2.563,4.888,6.501c-0.023,0.132-0.033,0.249-0.028,0.35c0.025,0.673,0.189,0.682,0.489,0.028
		c0.978-2.13,1.892-4.285,2.74-6.466c1.217-3.124,1.997-5.302,2.342-6.532c0.636-2.28,0.987-4.61,1.055-6.99
		C354.292,308.125,354.242,306.401,354.082,305.064z M366.165,278.555c1.811-4.332,2.87-9.087,3.177-14.265
		c0.044-0.74,0.103-1.449,0.177-2.127c0.079-0.703,0.146-1.408,0.201-2.116c0.086-1.082,0.186-2.141,0.302-3.174
		c0.358-3.205,0.499-6.424,0.42-9.654c-0.003-0.028-0.015-0.168-0.039-0.42c-0.037-0.375,0.086-0.521,0.368-0.441
		c0.098,0.029,0.18,0.114,0.219,0.229c0.664,2.014,1.693,5.508,3.087,10.48c0.631,2.25,0.902,4.325,0.812,6.223
		c-0.005,0.12,0.036,0.141,0.121,0.062c0.428-0.384,0.719-0.867,0.875-1.45c0.167-0.628,0.321-1.258,0.464-1.891
		c1.514-4.054,2.641-8.281,3.028-12.702c0.202-2.612,0.17-5.294-0.317-7.923c-0.418-2.646-1.273-5.164-2.229-7.592
		c-1.942-4.863-4.56-9.256-6.822-13.725c-1.119-2.239-2.235-4.479-3.066-6.827c-0.853-2.343-1.48-4.768-1.853-7.313
		c-0.328,2.546-0.152,5.175,0.338,7.735c0.482,2.571,1.348,5.036,2.285,7.441c1.898,4.811,4.322,9.289,6.15,13.882
		c1.268,3.055,2.17,6.161,2.639,9.361c-0.956-3.621-2.572-7.067-4.861-10.332c-1.078-1.536-1.949-2.545-2.612-3.028
		c-2.766-2.008-5.586-4.033-8.458-6.078c-0.521-0.37-0.662-0.259-0.423,0.333c1.159,2.879,2.005,5.84,2.54,8.881
		c0.393,2.252,0.506,4.552,0.34,6.9c-0.169,2.336-0.503,4.939-1.002,7.809c-0.876,5.03-1.601,10.032-2.172,15.007
		c-0.042,0.352-0.148,0.374-0.319,0.066l-4.69-8.423c-0.081-0.148-0.142-0.14-0.184,0.024c-0.194,0.754-0.351,1.524-0.468,2.31
		c-0.153,1.02-0.324,1.778-0.514,2.276c-0.629,1.644-1.592,3.158-2.89,4.541c-0.101,0.107-0.252,0.149-0.395,0.111
		c-0.83-0.217-1.545-0.616-2.144-1.197c-0.021-0.021-0.047-0.037-0.075-0.047c-0.013-0.004-0.025,0.004-0.038,0.002
		c-0.027-0.004-0.049-0.002-0.077,0.005c-0.027,0.007-0.048,0.015-0.071,0.031c-0.011,0.008-0.025,0.005-0.035,0.015
		c-0.021,0.022-0.038,0.048-0.048,0.077c-1.23,3.532-2.51,6.91-3.84,10.137c-2.248,5.451-4.975,10.648-8.18,15.59
		c-0.13,0.197-0.081,0.194,0.146-0.007c7.204-6.397,14.56-12.704,22.066-18.92c0.292-0.241,0.446-0.172,0.465,0.205
		c0.229,4.875-0.075,9.747-0.912,14.615c-0.005,0.019-0.115,0.838-0.329,2.46c-0.162,1.214-0.489,2.426-0.982,3.635
		c-0.083,0.208-0.015,0.29,0.205,0.246c0.345-0.069,0.644-0.209,0.899-0.42c0.245-0.201,0.372-0.306,0.381-0.316
		C361.68,286.062,364.461,282.628,366.165,278.555z M387.004,279.598c-0.432-2.696-1.171-5.24-1.894-7.73
		c-0.728-2.497-1.405-4.94-1.882-7.61c-0.097,0.294-0.18,0.592-0.255,0.891c-0.061-0.476-0.116-0.953-0.205-1.425
		c-0.318,5.571-1.847,10.81-3.956,15.804c-2.107,5.001-4.744,9.784-7.379,14.63c-2.639,4.856-5.233,9.847-7.08,15.188
		c-1.835,5.306-2.915,11.067-2.114,16.617c0.557-5.551,2.244-10.738,4.459-15.695c2.211-4.963,4.906-9.723,7.546-14.581
		c2.642-4.868,5.185-9.902,6.923-15.288c0.715-2.214,1.276-4.508,1.63-6.826c0.29,2.237,0.711,4.407,1.045,6.525
		c0.404,2.496,0.607,4.959,0.606,7.502c0.015,2.54-0.214,5.098-0.494,7.796c1.537-2.242,2.502-4.857,3.002-7.559
		C387.459,285.135,387.447,282.297,387.004,279.598z M408.662,229.138c-1.328-1.117-2.619-2.272-3.875-3.465
		c-1.45-1.374-2.589-2.672-3.417-3.896c-1.045-1.536-1.928-3.17-2.647-4.902c-0.488-1.173-2.353-4.771-5.595-10.796
		c-0.25-0.465-0.551-1.263-0.902-2.394c-0.003-0.01-0.005-0.019-0.006-0.029c-0.008-0.078,0.048-0.147,0.124-0.155
		c1.064-0.109,2.126-0.219,3.185-0.33c2.153-0.227,4.101,0.255,5.842,1.447c0.25,0.171,0.385,0.105,0.406-0.198
		c0.021-0.312-0.06-0.568-0.243-0.767c-1.212-1.318-2.33-2.712-3.355-4.18c-2.761-3.969-5.58-7.897-8.454-11.784
		c-0.021-0.03-0.548-0.756-1.582-2.179c-1.554-2.142-3.072-3.958-4.555-5.45c-1.668-1.681-3.604-3.098-5.81-4.25
		c-3.129-1.635-6.357-2.804-9.682-3.507c-0.113-0.023-0.207-0.03-0.281-0.021c-0.185,0.025-0.244,0.115-0.177,0.267
		c0.035,0.081,0.11,0.15,0.226,0.208c1.533,0.775,3.132,1.995,4.798,3.66c1.952,1.95,3.481,3.9,4.589,5.852
		c0.728,1.286,1.1,1.94,1.114,1.964c0.414,0.71,0.804,1.442,1.169,2.196c0.072,0.15,0.036,0.183-0.107,0.097
		c-1.145-0.668-2.343-1.087-3.594-1.256c-0.964-0.132-1.471-0.201-1.52-0.208c-0.61-0.097-1.225-0.164-1.845-0.201
		c-0.116-0.007-0.124,0.021-0.024,0.083c0.564,0.354,0.955,0.634,1.172,0.839c1.503,1.418,3.008,2.833,4.513,4.246
		c1.034,0.969,1.892,2.076,2.574,3.32c0.832,1.519,1.581,3.078,2.245,4.676c0.206,0.5,0.558,0.85,1.058,1.051
		c0.414,0.164,0.401,0.281-0.039,0.35c-2.523,0.393-4.89,1.275-7.101,2.647c-0.166,0.102-0.156,0.183,0.031,0.243
		c6.29,2.033,10.937,5.807,13.939,11.323c0.056,0.102,0.035,0.121-0.062,0.059c-0.491-0.314-1.014-0.562-1.572-0.742
		c-2.99-0.967-6.149-1.277-9.477-0.93c-0.342,0.035-0.353,0.114-0.031,0.239c0.126,0.049,0.244,0.115,0.367,0.17
		c3.868,3.562,7.397,7.337,10.351,11.526c1.531,2.145,2.938,4.365,4.206,6.658c1.251,2.303,2.364,4.674,3.331,7.102
		c1.992,4.841,3.076,9.971,4.159,15.248c0.015,0.069,0.028,0.138,0.042,0.207c-0.416-1.022-0.854-2.036-1.338-3.028
		c-1.439-2.945-3.171-5.748-5.186-8.326c-2.021-2.57-4.296-4.946-6.93-6.896c1.633,2.835,3.29,5.542,4.837,8.298
		c1.553,2.748,3.026,5.514,4.403,8.329c1.378,2.814,2.658,5.675,3.874,8.589c1.226,2.913,2.344,5.884,3.574,8.915
		c0.007-0.295-0.014-0.589-0.016-0.884c0.143-5.217-0.178-10.428-0.772-15.606c-0.316-2.688-0.69-5.383-1.264-8.082
		c-0.584-2.697-1.369-5.376-2.408-7.943c-1.025-2.575-2.257-5.065-3.678-7.439c-0.86-1.413-1.796-2.777-2.787-4.097
		c1.099,0.552,2.236,1.016,3.424,1.367c2.366,0.698,3.561,1.052,3.587,1.061c2.292,0.766,4.609,1.448,6.952,2.047
		c0.097,0.025,0.182,0.028,0.253,0.007C408.878,229.437,408.875,229.319,408.662,229.138z"/>
</g>
</svg>
